# xmcd
#
# Track frame offsets: 
#        150
#        28363
#        60246
#        86017
#        116258
#        143935
#        169411
#        205130
#        229337
#
# Disc length: 3370 seconds
#
# Revision: 1
# Processed by: cddbd v1.5.2PL0 Copyright (c) Steve Scherf et al.
# Submitted via: ExactAudioCopy v0.99pb5
#
DISCID=7b0d2809
DTITLE=Paul Gormley Quartet - Our Delight
DYEAR=2009
DGENRE=Talking Dog
TTITLE0=Good Bait
TTITLE1=Everything I Love
TTITLE2=Lujon
TTITLE3=Our Delight
TTITLE4=I Fall in Love Too Easily
TTITLE5=You and I
TTITLE6=Sweet and Lovely
TTITLE7=The Work Song
TTITLE8=The Preacher
EXTD=YEAR: 2009
EXTT0=
EXTT1=
EXTT2=
EXTT3=
EXTT4=
EXTT5=
EXTT6=
EXTT7=
EXTT8=
PLAYORDER=
